<mxfile host="app.diagrams.net" agent="Mozilla/5.0 (Macintosh; Intel Mac OS X 10.15; rv:137.0) Gecko/20100101 Firefox/137.0" version="26.2.13">
  <diagram name="Page-1" id="TtiW4mMxfE1wLx5P75x9">
    <mxGraphModel dx="793" dy="419" grid="1" gridSize="10" guides="1" tooltips="1" connect="1" arrows="1" fold="1" page="1" pageScale="1" pageWidth="850" pageHeight="1100" math="0" shadow="0">
      <root>
        <mxCell id="0" />
        <mxCell id="1" parent="0" />
        <mxCell id="gxeyPCvs1zIvZB43rxMI-2" value="" style="sketch=0;pointerEvents=1;shadow=0;dashed=0;html=1;strokeColor=none;fillColor=#505050;labelPosition=center;verticalLabelPosition=bottom;verticalAlign=top;outlineConnect=0;align=center;shape=mxgraph.office.services.online_hosted_services;" vertex="1" parent="1">
          <mxGeometry x="640" y="210" width="170" height="140" as="geometry" />
        </mxCell>
        <mxCell id="gxeyPCvs1zIvZB43rxMI-9" value="" style="shape=flexArrow;endArrow=classic;html=1;rounded=0;width=4;endSize=6.6;endWidth=4;" edge="1" parent="1">
          <mxGeometry width="50" height="50" relative="1" as="geometry">
            <mxPoint x="600" y="250" as="sourcePoint" />
            <mxPoint x="410" y="250" as="targetPoint" />
          </mxGeometry>
        </mxCell>
        <mxCell id="gxeyPCvs1zIvZB43rxMI-10" value="" style="shape=flexArrow;endArrow=classic;html=1;rounded=0;width=4;endSize=6.6;endWidth=4;" edge="1" parent="1">
          <mxGeometry width="50" height="50" relative="1" as="geometry">
            <mxPoint x="410" y="260" as="sourcePoint" />
            <mxPoint x="600" y="260" as="targetPoint" />
          </mxGeometry>
        </mxCell>
        <mxCell id="gxeyPCvs1zIvZB43rxMI-11" value="" style="shape=flexArrow;endArrow=classic;startArrow=classic;html=1;rounded=0;width=3.2;startSize=5.8;startWidth=6.720000000000001;endWidth=6.720000000000001;endSize=6.731999999999999;" edge="1" parent="1">
          <mxGeometry width="100" height="100" relative="1" as="geometry">
            <mxPoint x="410" y="310" as="sourcePoint" />
            <mxPoint x="600" y="310" as="targetPoint" />
          </mxGeometry>
        </mxCell>
        <mxCell id="gxeyPCvs1zIvZB43rxMI-12" value="" style="shape=flexArrow;endArrow=classic;startArrow=classic;html=1;rounded=0;width=3.2;startSize=5.8;startWidth=6.720000000000001;endWidth=6.720000000000001;endSize=6.731999999999999;" edge="1" parent="1">
          <mxGeometry width="100" height="100" relative="1" as="geometry">
            <mxPoint x="410" y="320" as="sourcePoint" />
            <mxPoint x="600" y="320" as="targetPoint" />
          </mxGeometry>
        </mxCell>
        <mxCell id="gxeyPCvs1zIvZB43rxMI-19" value="&lt;div style=&quot;line-height: 100%;&quot;&gt;&lt;font style=&quot;font-size: 4px;&quot;&gt;HTTP -&amp;gt; JSON &lt;/font&gt;&lt;/div&gt;" style="text;html=1;align=center;verticalAlign=middle;whiteSpace=wrap;rounded=0;" vertex="1" parent="1">
          <mxGeometry x="440" y="230" width="120" height="20" as="geometry" />
        </mxCell>
        <mxCell id="gxeyPCvs1zIvZB43rxMI-20" value="&lt;font style=&quot;font-size: 6px;&quot;&gt;Requests&lt;/font&gt;" style="text;html=1;align=center;verticalAlign=middle;whiteSpace=wrap;rounded=0;" vertex="1" parent="1">
          <mxGeometry x="440" y="220" width="120" height="10" as="geometry" />
        </mxCell>
        <mxCell id="gxeyPCvs1zIvZB43rxMI-21" value="&lt;div style=&quot;line-height: 100%;&quot;&gt;&lt;font style=&quot;font-size: 4px;&quot;&gt;Socket -&amp;gt; JSON &lt;/font&gt;&lt;/div&gt;" style="text;html=1;align=center;verticalAlign=middle;whiteSpace=wrap;rounded=0;" vertex="1" parent="1">
          <mxGeometry x="440" y="290" width="120" height="20" as="geometry" />
        </mxCell>
        <mxCell id="gxeyPCvs1zIvZB43rxMI-22" value="&lt;font style=&quot;font-size: 6px;&quot;&gt;Channels (pub-sub)&lt;/font&gt;" style="text;html=1;align=center;verticalAlign=middle;whiteSpace=wrap;rounded=0;" vertex="1" parent="1">
          <mxGeometry x="440" y="280" width="120" height="10" as="geometry" />
        </mxCell>
        <mxCell id="gxeyPCvs1zIvZB43rxMI-23" value="" style="shape=flexArrow;endArrow=classic;html=1;rounded=0;width=4;endSize=6.6;endWidth=4;" edge="1" parent="1">
          <mxGeometry width="50" height="50" relative="1" as="geometry">
            <mxPoint x="290" y="249.71" as="sourcePoint" />
            <mxPoint x="160" y="250" as="targetPoint" />
          </mxGeometry>
        </mxCell>
        <mxCell id="gxeyPCvs1zIvZB43rxMI-24" value="" style="shape=flexArrow;endArrow=classic;html=1;rounded=0;width=4;endSize=6.6;endWidth=4;" edge="1" parent="1">
          <mxGeometry width="50" height="50" relative="1" as="geometry">
            <mxPoint x="160" y="260" as="sourcePoint" />
            <mxPoint x="290" y="259.71" as="targetPoint" />
          </mxGeometry>
        </mxCell>
        <mxCell id="gxeyPCvs1zIvZB43rxMI-25" value="&lt;div style=&quot;line-height: 100%;&quot;&gt;&lt;font style=&quot;font-size: 4px;&quot;&gt;HTTP&lt;/font&gt;&lt;/div&gt;" style="text;html=1;align=center;verticalAlign=middle;whiteSpace=wrap;rounded=0;" vertex="1" parent="1">
          <mxGeometry x="170" y="220.29" width="120" height="20" as="geometry" />
        </mxCell>
        <mxCell id="gxeyPCvs1zIvZB43rxMI-26" value="&lt;font style=&quot;font-size: 6px;&quot;&gt;Requests&lt;/font&gt;" style="text;html=1;align=center;verticalAlign=middle;whiteSpace=wrap;rounded=0;" vertex="1" parent="1">
          <mxGeometry x="170" y="210" width="120" height="10" as="geometry" />
        </mxCell>
        <mxCell id="gxeyPCvs1zIvZB43rxMI-30" value="React&lt;br&gt;Front End" style="text;html=1;align=center;verticalAlign=middle;whiteSpace=wrap;rounded=0;" vertex="1" parent="1">
          <mxGeometry x="695" y="130" width="60" height="30" as="geometry" />
        </mxCell>
        <mxCell id="gxeyPCvs1zIvZB43rxMI-31" value="Immutable Architecture - Simple Distributed" style="swimlane;whiteSpace=wrap;html=1;" vertex="1" parent="1">
          <mxGeometry x="30" y="80" width="820" height="390" as="geometry" />
        </mxCell>
        <mxCell id="gxeyPCvs1zIvZB43rxMI-45" value="" style="ellipse;whiteSpace=wrap;html=1;fillStyle=hatch;shadow=1;strokeColor=#001DBC;fillColor=#0050ef;fontColor=#ffffff;" vertex="1" parent="gxeyPCvs1zIvZB43rxMI-31">
          <mxGeometry x="200" y="265" width="80" height="70" as="geometry" />
        </mxCell>
        <mxCell id="gxeyPCvs1zIvZB43rxMI-42" value="" style="ellipse;whiteSpace=wrap;html=1;fillStyle=hatch;shadow=1;strokeColor=#001DBC;fillColor=#0050ef;fontColor=#ffffff;" vertex="1" parent="gxeyPCvs1zIvZB43rxMI-31">
          <mxGeometry x="270" y="90" width="90" height="140" as="geometry" />
        </mxCell>
        <mxCell id="gxeyPCvs1zIvZB43rxMI-39" value="" style="fontColor=#0066CC;verticalAlign=top;verticalLabelPosition=bottom;labelPosition=center;align=center;html=1;outlineConnect=0;fillColor=#CCCCCC;strokeColor=#6881B3;gradientColor=none;gradientDirection=north;strokeWidth=2;shape=mxgraph.networks.desktop_pc;" vertex="1" parent="gxeyPCvs1zIvZB43rxMI-31">
          <mxGeometry x="320" y="110" width="20" height="40" as="geometry" />
        </mxCell>
        <mxCell id="gxeyPCvs1zIvZB43rxMI-13" value="" style="fontColor=#0066CC;verticalAlign=top;verticalLabelPosition=bottom;labelPosition=center;align=center;html=1;outlineConnect=0;fillColor=#CCCCCC;strokeColor=#6881B3;gradientColor=none;gradientDirection=north;strokeWidth=2;shape=mxgraph.networks.desktop_pc;" vertex="1" parent="gxeyPCvs1zIvZB43rxMI-31">
          <mxGeometry x="290" y="110" width="20" height="40" as="geometry" />
        </mxCell>
        <mxCell id="gxeyPCvs1zIvZB43rxMI-40" value="" style="fontColor=#0066CC;verticalAlign=top;verticalLabelPosition=bottom;labelPosition=center;align=center;html=1;outlineConnect=0;fillColor=#CCCCCC;strokeColor=#6881B3;gradientColor=none;gradientDirection=north;strokeWidth=2;shape=mxgraph.networks.desktop_pc;" vertex="1" parent="gxeyPCvs1zIvZB43rxMI-31">
          <mxGeometry x="290" y="160" width="20" height="40" as="geometry" />
        </mxCell>
        <mxCell id="gxeyPCvs1zIvZB43rxMI-41" value="" style="fontColor=#0066CC;verticalAlign=top;verticalLabelPosition=bottom;labelPosition=center;align=center;html=1;outlineConnect=0;fillColor=#CCCCCC;strokeColor=#6881B3;gradientColor=none;gradientDirection=north;strokeWidth=2;shape=mxgraph.networks.desktop_pc;" vertex="1" parent="gxeyPCvs1zIvZB43rxMI-31">
          <mxGeometry x="320" y="160" width="20" height="40" as="geometry" />
        </mxCell>
        <mxCell id="gxeyPCvs1zIvZB43rxMI-43" value="" style="fontColor=#0066CC;verticalAlign=top;verticalLabelPosition=bottom;labelPosition=center;align=center;html=1;outlineConnect=0;fillColor=#CCCCCC;strokeColor=#6881B3;gradientColor=none;gradientDirection=north;strokeWidth=2;shape=mxgraph.networks.desktop_pc;" vertex="1" parent="gxeyPCvs1zIvZB43rxMI-31">
          <mxGeometry x="250" y="280" width="20" height="40" as="geometry" />
        </mxCell>
        <mxCell id="gxeyPCvs1zIvZB43rxMI-44" value="" style="fontColor=#0066CC;verticalAlign=top;verticalLabelPosition=bottom;labelPosition=center;align=center;html=1;outlineConnect=0;fillColor=#CCCCCC;strokeColor=#6881B3;gradientColor=none;gradientDirection=north;strokeWidth=2;shape=mxgraph.networks.desktop_pc;" vertex="1" parent="gxeyPCvs1zIvZB43rxMI-31">
          <mxGeometry x="210" y="280" width="20" height="40" as="geometry" />
        </mxCell>
        <mxCell id="gxeyPCvs1zIvZB43rxMI-35" value="" style="endArrow=none;dashed=1;html=1;rounded=0;exitX=0.205;exitY=0.928;exitDx=0;exitDy=0;exitPerimeter=0;entryX=0.741;entryY=0.041;entryDx=0;entryDy=0;entryPerimeter=0;" edge="1" parent="gxeyPCvs1zIvZB43rxMI-31" source="gxeyPCvs1zIvZB43rxMI-42" target="gxeyPCvs1zIvZB43rxMI-45">
          <mxGeometry width="50" height="50" relative="1" as="geometry">
            <mxPoint x="270" y="240" as="sourcePoint" />
            <mxPoint x="420" y="120" as="targetPoint" />
          </mxGeometry>
        </mxCell>
        <mxCell id="gxeyPCvs1zIvZB43rxMI-32" value="" style="html=1;outlineConnect=0;fillColor=#CCCCCC;strokeColor=#6881B3;gradientColor=none;gradientDirection=north;strokeWidth=2;shape=mxgraph.networks.bus;gradientColor=none;gradientDirection=north;fontColor=#ffffff;perimeter=backbonePerimeter;backboneSize=20;" vertex="1" parent="gxeyPCvs1zIvZB43rxMI-31">
          <mxGeometry x="300" y="355" width="200" height="20" as="geometry" />
        </mxCell>
        <mxCell id="gxeyPCvs1zIvZB43rxMI-46" value="" style="endArrow=none;dashed=1;html=1;rounded=0;exitX=1;exitY=0.5;exitDx=0;exitDy=0;" edge="1" parent="gxeyPCvs1zIvZB43rxMI-31" source="gxeyPCvs1zIvZB43rxMI-45" target="gxeyPCvs1zIvZB43rxMI-32">
          <mxGeometry width="50" height="50" relative="1" as="geometry">
            <mxPoint x="300" y="280" as="sourcePoint" />
            <mxPoint x="320" y="250" as="targetPoint" />
          </mxGeometry>
        </mxCell>
        <mxCell id="gxeyPCvs1zIvZB43rxMI-47" value="" style="endArrow=none;dashed=1;html=1;rounded=0;entryX=1;entryY=0.5;entryDx=0;entryDy=0;entryPerimeter=0;" edge="1" parent="gxeyPCvs1zIvZB43rxMI-31" source="gxeyPCvs1zIvZB43rxMI-43" target="gxeyPCvs1zIvZB43rxMI-44">
          <mxGeometry width="50" height="50" relative="1" as="geometry">
            <mxPoint x="298" y="230" as="sourcePoint" />
            <mxPoint x="269" y="278" as="targetPoint" />
          </mxGeometry>
        </mxCell>
        <mxCell id="gxeyPCvs1zIvZB43rxMI-29" value="Phoenix Cluster" style="text;html=1;align=center;verticalAlign=middle;whiteSpace=wrap;rounded=0;" vertex="1" parent="gxeyPCvs1zIvZB43rxMI-31">
          <mxGeometry x="285" y="50" width="60" height="30" as="geometry" />
        </mxCell>
        <mxCell id="gxeyPCvs1zIvZB43rxMI-48" value="&lt;div&gt;&lt;font style=&quot;font-size: 10px;&quot;&gt;Dedicated Phoenix Queue&lt;/font&gt;&lt;/div&gt;&lt;div&gt;&lt;font style=&quot;font-size: 10px;&quot;&gt;Or Cloud Workers&lt;/font&gt;&lt;/div&gt;" style="text;html=1;align=center;verticalAlign=middle;whiteSpace=wrap;rounded=0;" vertex="1" parent="gxeyPCvs1zIvZB43rxMI-31">
          <mxGeometry x="160" y="210" width="110" height="60" as="geometry" />
        </mxCell>
        <mxCell id="gxeyPCvs1zIvZB43rxMI-49" value="" style="ellipse;whiteSpace=wrap;html=1;fillStyle=hatch;shadow=1;strokeColor=#001DBC;fillColor=#0050ef;fontColor=#ffffff;" vertex="1" parent="gxeyPCvs1zIvZB43rxMI-31">
          <mxGeometry x="30" y="120" width="90" height="110" as="geometry" />
        </mxCell>
        <mxCell id="gxeyPCvs1zIvZB43rxMI-1" value="" style="shape=cylinder3;whiteSpace=wrap;html=1;boundedLbl=1;backgroundOutline=1;size=4.285714285714278;" vertex="1" parent="gxeyPCvs1zIvZB43rxMI-31">
          <mxGeometry x="45" y="140" width="20" height="35" as="geometry" />
        </mxCell>
        <mxCell id="gxeyPCvs1zIvZB43rxMI-51" value="" style="shape=cylinder3;whiteSpace=wrap;html=1;boundedLbl=1;backgroundOutline=1;size=4.285714285714278;" vertex="1" parent="gxeyPCvs1zIvZB43rxMI-31">
          <mxGeometry x="85" y="140" width="20" height="35" as="geometry" />
        </mxCell>
        <mxCell id="gxeyPCvs1zIvZB43rxMI-52" value="" style="shape=cylinder3;whiteSpace=wrap;html=1;boundedLbl=1;backgroundOutline=1;size=4.285714285714278;" vertex="1" parent="gxeyPCvs1zIvZB43rxMI-31">
          <mxGeometry x="65" y="185" width="20" height="35" as="geometry" />
        </mxCell>
        <mxCell id="gxeyPCvs1zIvZB43rxMI-27" value="Database Cluster" style="text;html=1;align=center;verticalAlign=middle;whiteSpace=wrap;rounded=0;" vertex="1" parent="gxeyPCvs1zIvZB43rxMI-31">
          <mxGeometry x="45" y="70" width="60" height="30" as="geometry" />
        </mxCell>
        <mxCell id="gxeyPCvs1zIvZB43rxMI-53" value="" style="ellipse;whiteSpace=wrap;html=1;fillStyle=hatch;shadow=1;strokeColor=#001DBC;fillColor=#0050ef;fontColor=#ffffff;" vertex="1" parent="gxeyPCvs1zIvZB43rxMI-31">
          <mxGeometry x="410" y="40" width="80" height="70" as="geometry" />
        </mxCell>
        <mxCell id="gxeyPCvs1zIvZB43rxMI-54" value="" style="fontColor=#0066CC;verticalAlign=top;verticalLabelPosition=bottom;labelPosition=center;align=center;html=1;outlineConnect=0;fillColor=#CCCCCC;strokeColor=#6881B3;gradientColor=none;gradientDirection=north;strokeWidth=2;shape=mxgraph.networks.desktop_pc;" vertex="1" parent="gxeyPCvs1zIvZB43rxMI-31">
          <mxGeometry x="460" y="55" width="20" height="40" as="geometry" />
        </mxCell>
        <mxCell id="gxeyPCvs1zIvZB43rxMI-55" value="" style="fontColor=#0066CC;verticalAlign=top;verticalLabelPosition=bottom;labelPosition=center;align=center;html=1;outlineConnect=0;fillColor=#CCCCCC;strokeColor=#6881B3;gradientColor=none;gradientDirection=north;strokeWidth=2;shape=mxgraph.networks.desktop_pc;" vertex="1" parent="gxeyPCvs1zIvZB43rxMI-31">
          <mxGeometry x="420" y="55" width="20" height="40" as="geometry" />
        </mxCell>
        <mxCell id="gxeyPCvs1zIvZB43rxMI-16" value="&lt;div style=&quot;line-height: 100%;&quot;&gt;&lt;font style=&quot;font-size: 4px;&quot;&gt;HTTP -&amp;gt; HTML &lt;/font&gt;&lt;/div&gt;" style="text;html=1;align=center;verticalAlign=middle;whiteSpace=wrap;rounded=0;" vertex="1" parent="gxeyPCvs1zIvZB43rxMI-31">
          <mxGeometry x="500" y="100" width="120" height="20" as="geometry" />
        </mxCell>
        <mxCell id="gxeyPCvs1zIvZB43rxMI-18" value="&lt;font style=&quot;font-size: 6px;&quot;&gt;Page&lt;/font&gt;" style="text;html=1;align=center;verticalAlign=middle;whiteSpace=wrap;rounded=0;" vertex="1" parent="gxeyPCvs1zIvZB43rxMI-31">
          <mxGeometry x="500" y="90" width="120" height="10" as="geometry" />
        </mxCell>
        <mxCell id="gxeyPCvs1zIvZB43rxMI-56" value="Dedicated Server or CDN" style="text;html=1;align=center;verticalAlign=middle;whiteSpace=wrap;rounded=0;" vertex="1" parent="gxeyPCvs1zIvZB43rxMI-31">
          <mxGeometry x="490" y="30" width="70" height="50" as="geometry" />
        </mxCell>
        <mxCell id="gxeyPCvs1zIvZB43rxMI-37" value="&lt;font style=&quot;font-size: 6px;&quot;&gt;Worker Queues&lt;/font&gt;" style="text;html=1;align=center;verticalAlign=middle;whiteSpace=wrap;rounded=0;" vertex="1" parent="gxeyPCvs1zIvZB43rxMI-31">
          <mxGeometry x="340" y="360" width="120" height="10" as="geometry" />
        </mxCell>
        <mxCell id="gxeyPCvs1zIvZB43rxMI-58" value="" style="shape=step;perimeter=stepPerimeter;whiteSpace=wrap;html=1;fixedSize=1;" vertex="1" parent="gxeyPCvs1zIvZB43rxMI-31">
          <mxGeometry x="340" y="285" width="110" height="20" as="geometry" />
        </mxCell>
        <mxCell id="gxeyPCvs1zIvZB43rxMI-59" value="&lt;font style=&quot;font-size: 6px;&quot;&gt;Services&lt;/font&gt;" style="text;html=1;align=center;verticalAlign=middle;whiteSpace=wrap;rounded=0;" vertex="1" parent="gxeyPCvs1zIvZB43rxMI-31">
          <mxGeometry x="330" y="285" width="120" height="10" as="geometry" />
        </mxCell>
        <mxCell id="gxeyPCvs1zIvZB43rxMI-61" value="" style="endArrow=none;dashed=1;html=1;rounded=0;exitX=0.977;exitY=0.343;exitDx=0;exitDy=0;exitPerimeter=0;entryX=0;entryY=0.5;entryDx=0;entryDy=0;" edge="1" parent="gxeyPCvs1zIvZB43rxMI-31" source="gxeyPCvs1zIvZB43rxMI-45" target="gxeyPCvs1zIvZB43rxMI-58">
          <mxGeometry width="50" height="50" relative="1" as="geometry">
            <mxPoint x="290" y="310" as="sourcePoint" />
            <mxPoint x="310" y="365" as="targetPoint" />
          </mxGeometry>
        </mxCell>
        <mxCell id="gxeyPCvs1zIvZB43rxMI-62" value="" style="endArrow=none;dashed=1;html=1;rounded=0;exitX=0.598;exitY=1.013;exitDx=0;exitDy=0;exitPerimeter=0;entryX=-0.012;entryY=0.114;entryDx=0;entryDy=0;entryPerimeter=0;" edge="1" parent="gxeyPCvs1zIvZB43rxMI-31" source="gxeyPCvs1zIvZB43rxMI-42" target="gxeyPCvs1zIvZB43rxMI-58">
          <mxGeometry width="50" height="50" relative="1" as="geometry">
            <mxPoint x="300" y="320" as="sourcePoint" />
            <mxPoint x="320" y="375" as="targetPoint" />
          </mxGeometry>
        </mxCell>
        <mxCell id="gxeyPCvs1zIvZB43rxMI-5" value="" style="shape=flexArrow;endArrow=classic;html=1;rounded=0;width=4;endSize=6.332;endWidth=4.8;" edge="1" parent="1" source="gxeyPCvs1zIvZB43rxMI-53" target="gxeyPCvs1zIvZB43rxMI-2">
          <mxGeometry width="50" height="50" relative="1" as="geometry">
            <mxPoint x="500" y="200" as="sourcePoint" />
            <mxPoint x="700" y="200" as="targetPoint" />
          </mxGeometry>
        </mxCell>
      </root>
    </mxGraphModel>
  </diagram>
</mxfile>
